<svg width="236" height="60" fill="none" xmlns="http://www.w3.org/2000/svg"><path d="M4.482 32.176c-1.996-1.153-2-4.033-.007-5.191l27.522-15.996A3 3 0 0135 10.98l27.834 15.997c2.01 1.155 2.006 4.056-.006 5.206L34.993 48.088a3 3 0 01-2.99-.007L4.483 32.176z" fill="#E13922"/><path d="M38.642 33.6c-1.996-1.154-2-4.034-.007-5.192l17.217-10.007a3 3 0 013.003-.007L76.267 28.4c2.01 1.155 2.007 4.056-.006 5.206l-17.413 9.95a3 3 0 01-2.99-.008l-17.216-9.95z" fill="#FF8F31"/><path d="M96.3 24.587v-12.6h5.454c1.128 0 2.1.185 2.916.557.816.36 1.446.883 1.89 1.566.444.684.666 1.5.666 2.448 0 .936-.222 1.747-.666 2.43-.444.672-1.074 1.189-1.89 1.549-.816.36-1.788.54-2.916.54H97.92l1.296-1.279v4.789H96.3zm8.01 0l-3.15-4.572h3.114l3.186 4.572h-3.15zm-5.094-4.465l-1.296-1.367h3.672c.9 0 1.572-.192 2.016-.576.444-.396.666-.936.666-1.62 0-.697-.222-1.237-.666-1.62-.444-.384-1.116-.576-2.016-.576H97.92l1.296-1.386v7.145zm8.665 4.465l5.616-12.6h2.88l5.634 12.6h-3.06l-4.608-11.124h1.152l-4.626 11.124h-2.988zm2.808-2.7l.774-2.215h6.48l.792 2.215h-8.046zm12.629 2.7v-12.6h5.454c1.128 0 2.1.185 2.916.557.816.36 1.446.883 1.89 1.566.444.684.666 1.5.666 2.448 0 .936-.222 1.747-.666 2.43-.444.684-1.074 1.213-1.89 1.585-.816.36-1.788.54-2.916.54h-3.834l1.296-1.314v4.788h-2.916zm2.916-4.465l-1.296-1.386h3.672c.9 0 1.572-.192 2.016-.576.444-.384.666-.918.666-1.602 0-.695-.222-1.236-.666-1.62-.444-.383-1.116-.575-2.016-.575h-3.672l1.296-1.386v7.145zm10.092 4.465v-12.6h2.916v12.6h-2.916zm5.906 0v-12.6h5.724c1.368 0 2.574.264 3.618.791 1.044.516 1.86 1.242 2.448 2.178.588.937.882 2.047.882 3.33 0 1.272-.294 2.383-.882 3.33-.588.936-1.404 1.669-2.448 2.197-1.044.515-2.25.774-3.618.774h-5.724zm2.916-2.395h2.664c.84 0 1.566-.155 2.178-.468a3.447 3.447 0 001.44-1.367c.348-.588.522-1.279.522-2.07 0-.804-.174-1.494-.522-2.07a3.335 3.335 0 00-1.44-1.35c-.612-.325-1.338-.487-2.178-.487h-2.664v7.812zm14.637-5.13h6.066v2.268h-6.066v-2.267zm.216 5.184h6.858v2.34h-9.756v-12.6h9.522v2.34h-6.624v7.92zm8.269-1.601v-2.25h5.094v2.25h-5.094zM96.3 46.587v-12.6h2.916v12.6H96.3zm5.907 0v-12.6h2.412l5.364 8.892h-1.278l5.274-8.892h2.394l.036 12.6h-2.736l-.018-8.407h.504l-4.212 7.075h-1.314l-4.302-7.075h.612v8.407h-2.736zm17.191 0v-12.6h5.454c1.128 0 2.1.185 2.916.557.816.36 1.446.883 1.89 1.567.444.684.666 1.5.666 2.448 0 .936-.222 1.745-.666 2.43-.444.684-1.074 1.212-1.89 1.584-.816.36-1.788.54-2.916.54h-3.834l1.296-1.315v4.788h-2.916zm2.916-4.465l-1.296-1.386h3.672c.9 0 1.572-.191 2.016-.575.444-.385.666-.919.666-1.602 0-.697-.222-1.236-.666-1.62-.444-.385-1.116-.577-2.016-.577h-3.672l1.296-1.386v7.147zm10.092 4.465v-12.6h5.454c1.128 0 2.1.185 2.916.557.816.36 1.446.883 1.89 1.567.444.684.666 1.5.666 2.448 0 .936-.222 1.745-.666 2.43-.444.672-1.074 1.188-1.89 1.547-.816.36-1.788.54-2.916.54h-3.834l1.296-1.278v4.788h-2.916zm8.01 0l-3.15-4.573h3.114l3.186 4.572h-3.15zm-5.094-4.465l-1.296-1.367h3.672c.9 0 1.572-.193 2.016-.577.444-.395.666-.935.666-1.62 0-.696-.222-1.236-.666-1.62-.444-.384-1.116-.576-2.016-.576h-3.672l1.296-1.386v7.147zm15.918 4.68c-1.788 0-3.186-.498-4.194-1.493-1.008-.996-1.512-2.418-1.512-4.267v-7.056h2.916v6.949c0 1.2.246 2.063.738 2.591s1.182.792 2.07.792c.888 0 1.578-.264 2.07-.791.492-.529.738-1.392.738-2.593v-6.947h2.88v7.055c0 1.849-.504 3.27-1.512 4.267-1.008.995-2.406 1.494-4.194 1.494zm8.588-.215v-12.6h2.412l5.364 8.892h-1.278l5.274-8.892h2.394l.036 12.6h-2.736l-.018-8.407h.504l-4.212 7.075h-1.314l-4.302-7.075h.612v8.407h-2.736zm22.789.215c-1.788 0-3.186-.498-4.194-1.493-1.008-.996-1.512-2.418-1.512-4.267v-7.056h2.916v6.949c0 1.2.246 2.063.738 2.591s1.182.792 2.07.792c.888 0 1.578-.264 2.07-.791.492-.529.738-1.392.738-2.593v-6.947h2.88v7.055c0 1.849-.504 3.27-1.512 4.267-1.008.995-2.406 1.494-4.194 1.494zm10.987-.215V36.361h-4.032v-2.376h10.98v2.377h-4.032v10.224h-2.916zm13.904.215c-1.788 0-3.186-.498-4.194-1.493-1.008-.996-1.512-2.418-1.512-4.267v-7.056h2.916v6.949c0 1.2.246 2.063.738 2.591s1.182.792 2.07.792c.888 0 1.578-.264 2.07-.791.492-.529.738-1.392.738-2.593v-6.947h2.88v7.055c0 1.849-.504 3.27-1.512 4.267-1.008.995-2.406 1.494-4.194 1.494zm8.587-.215v-12.6h5.454c1.128 0 2.1.185 2.916.557.816.36 1.446.883 1.89 1.567.444.684.666 1.5.666 2.448 0 .936-.222 1.745-.666 2.43-.444.672-1.074 1.188-1.89 1.547-.816.36-1.788.54-2.916.54h-3.834l1.296-1.278v4.788h-2.916zm8.01 0l-3.15-4.573h3.114l3.186 4.572h-3.15zm-5.094-4.465l-1.296-1.367h3.672c.9 0 1.572-.193 2.016-.577.444-.395.666-.935.666-1.62 0-.696-.222-1.236-.666-1.62-.444-.384-1.116-.576-2.016-.576h-3.672l1.296-1.386v7.147zm10.321 4.465v-12.6h2.916v12.6h-2.916z" fill="#000"/></svg>