<svg version="1.1" id="Layer_1" xmlns="http://www.w3.org/2000/svg" xmlns:xlink="http://www.w3.org/1999/xlink" x="0px"
  y="0px" width="44px" height="34px" viewBox="0 0 44 34" enable-background="new 0 0 44 34" xml:space="preserve">
  <g>
    <path class="square" d="M3,33.5c-1.38,0-2.5-1.12-2.5-2.5V3c0-1.38,1.12-2.5,2.5-2.5h38c1.38,0,2.5,1.12,2.5,2.5v28
			c0,1.38-1.12,2.5-2.5,2.5H3z" />
    <path class="border" d="M41,1c1.1,0,2,0.9,2,2v28c0,1.1-0.9,2-2,2H3c-1.1,0-2-0.9-2-2V3c0-1.1,0.9-2,2-2H41 M41,0H3
			C1.35,0,0,1.35,0,3v28c0,1.65,1.35,3,3,3h38c1.65,0,3-1.35,3-3V3C44,1.35,42.65,0,41,0L41,0z" />
    <rect x="11" y="10" fill="#fff" width="22" height="2" />
    <rect x="11" y="16" fill="#fff" width="22" height="2" />
    <rect x="11" y="22" fill="#fff" width="22" height="2" />
  </g>
</svg>